Input #0, lavfi, from 'smptebars=duration=60:size=1920x1080:rate=30':
  Duration: N/A, start: 0.000000, bitrate: N/A
  Stream #0:0: Video: rawvideo (I420 / 0x30323449), yuv420p, 1920x1080 [SAR 1:1 DAR 16:9], 30 tbr, 30 tbn, 30 tbc
Stream mapping:
  Stream #0:0 -> #0:0 (rawvideo (native) -> h264 (h264_nvenc))
Press [q] to stop, [?] for help
Output #0, mp4, to './test_results/temp_tests_gpu/test_test_50_31/output.mp4':
  Metadata:
    encoder         : Lavf58.76.100
  Stream #0:0: Video: h264 (Main) (avc1 / 0x31637661), yuv420p(tv, progressive), 1280x720 [SAR 1:1 DAR 16:9], q=2-31, 30 fps, 15360 tbn
    Metadata:
      encoder         : Lavc58.134.100 h264_nvenc
    Side data:
      cpb: bitrate max/min/avg: 3000000/0/0 buffer size: 4000000 vbv_delay: N/A
frame=    1 fps=0.0 q=0.0 size=       0kB time=00:00:00.00 bitrate=N/A speed=   0x    frame=    2 fps=1.1 q=0.0 size=       0kB time=00:00:00.00 bitrate=N/A speed=   0x    frame=  152 fps= 67 q=23.0 size=       0kB time=00:00:04.96 bitrate=   0.1kbits/s speed=2.19x    frame=  307 fps=111 q=23.0 size=       0kB time=00:00:10.13 bitrate=   0.0kbits/s speed=3.66x    frame=  470 fps=144 q=23.0 size=       0kB time=00:00:15.56 bitrate=   0.0kbits/s speed=4.76x    frame=  624 fps=166 q=23.0 size=       0kB time=00:00:20.70 bitrate=   0.0kbits/s speed=5.49x    frame=  772 fps=181 q=23.0 size=       0kB time=00:00:25.63 bitrate=   0.0kbits/s speed=   6x    frame=  932 fps=195 q=23.0 size=       0kB time=00:00:30.96 bitrate=   0.0kbits/s speed=6.49x    frame= 1094 fps=207 q=23.0 size=       0kB time=00:00:36.36 bitrate=   0.0kbits/s speed= 6.9x    frame= 1287 fps=223 q=23.0 size=       0kB time=00:00:42.80 bitrate=   0.0kbits/s speed=7.41x    frame= 1474 fps=235 q=23.0 size=       0kB time=00:00:49.03 bitrate=   0.0kbits/s speed=7.81x    frame= 1679 fps=248 q=23.0 size=       0kB time=00:00:55.86 bitrate=   0.0kbits/s speed=8.25x    [mp4 @ 0x580479769740] Starting second pass: moving the moov atom to the beginning of the file
frame= 1800 fps=254 q=23.0 Lsize=     142kB time=00:00:59.96 bitrate=  19.4kbits/s speed=8.48x    
video:134kB audio:0kB subtitle:0kB other streams:0kB global headers:0kB muxing overhead: 5.963520%
